<svg xmlns="http://www.w3.org/2000/svg" viewBox="0 0 256 256" width="256" height="256">
  <circle cx="128" cy="128" r="128" fill="#FFE4EE"/>

  <path fill="#FB7299" d="M84.7 54.7a10 10 0 0 1 14.1 0L121.2 77h13.6l22.4-22.3a10 10 0 1 1 14.1 14.1L163.1 77H176c19.9 0 36 16.1 36 36v58c0 19.9-16.1 36-36 36H80c-19.9 0-36-16.1-36-36v-58c0-19.9 16.1-36 36-36h12.9l-8.2-8.2a10 10 0 0 1 0-14.1z"/>

  <rect x="68" y="101" width="120" height="82" rx="18" ry="18" fill="#FFE4EE"/>
  <rect x="87" y="126" width="18" height="32" rx="9" ry="9" fill="#FB7299"/>
  <rect x="151" y="126" width="18" height="32" rx="9" ry="9" fill="#FB7299"/>
  <circle cx="92" cy="117" r="5" fill="#FB7299"/>
  <circle cx="164" cy="117" r="5" fill="#FB7299"/>
</svg>
