<svg xmlns="http://www.w3.org/2000/svg" viewBox="0 0 48 48" width="48" height="48">
  <rect width="48" height="48" rx="10" fill="#FB7299"/>
  <path fill="#fff" d="M16.5 9.2a1.8 1.8 0 0 1 2.6 0l3.1 3.1h3.6l3.1-3.1a1.8 1.8 0 1 1 2.6 2.6l-.5.5H35a5 5 0 0 1 5 5v13a5 5 0 0 1-5 5H13a5 5 0 0 1-5-5v-13a5 5 0 0 1 5-5h1.4l-.5-.5a1.8 1.8 0 0 1 0-2.6zM13 16.9a1.4 1.4 0 0 0-1.4 1.4v11.4A1.4 1.4 0 0 0 13 31.1h22a1.4 1.4 0 0 0 1.4-1.4V18.3A1.4 1.4 0 0 0 35 16.9zm4.3 4.2a1.6 1.6 0 0 1 1.6 1.6v2.1a1.6 1.6 0 1 1-3.2 0v-2.1a1.6 1.6 0 0 1 1.6-1.6zm13.4 0a1.6 1.6 0 0 1 1.6 1.6v2.1a1.6 1.6 0 1 1-3.2 0v-2.1a1.6 1.6 0 0 1 1.6-1.6z"/>
</svg>
